<svg width="220" height="140" viewBox="0 0 220 140" fill="none" xmlns="http://www.w3.org/2000/svg">
<path d="M47.3223 78.3635L28.1103 54H24V84.9651H28.3014V60.9186L47.5157 84.9651H51.6215V54H47.3223V78.3635Z" fill="black"/>
<path d="M110.851 74.047L99.7715 54H95.6225V84.9651H99.9239V62.7168L110.851 82.8317L121.781 62.719V84.9651H126.08V54H121.931L110.851 74.047Z" fill="black"/>
<path d="M146.926 62.5584L134.754 84.9652H139.799L142.49 79.9036H155.329L158.108 84.9652H163.313L151.064 62.5584H146.926ZM153.081 75.4875H144.813L148.95 67.8396L153.079 75.4875H153.081Z" fill="black"/>
<path d="M184.536 62.5584H172.234V84.9652H184.536C189.824 84.9652 196 82.0098 196 73.6803C196 64.0078 188.819 62.5584 184.536 62.5584ZM184.536 80.5536H176.674V66.9768H184.536C187.165 66.9768 191.569 67.8532 191.569 73.7233C191.569 78.7577 187.936 80.5536 184.536 80.5536Z" fill="black"/>
<path d="M74.086 61.4915C67.3029 61.4915 61.7777 66.9902 61.7777 73.748C61.7777 80.5059 67.3029 86 74.086 86C80.8691 86 86.3898 80.5036 86.3898 73.748C86.3898 66.9925 80.8737 61.4915 74.086 61.4915ZM74.086 81.4027C69.8437 81.4027 66.3953 77.9672 66.3953 73.748C66.3953 69.5289 69.8437 66.0911 74.086 66.0911C78.3283 66.0911 81.7744 69.5289 81.7744 73.748C81.7744 77.9672 78.3215 81.4027 74.086 81.4027Z" fill="black"/>
</svg>
