<svg version="1.1" id="Layer_2_00000182500775078281945980000005925652937813728137_" xmlns="http://www.w3.org/2000/svg" x="0" y="0" viewBox="0 0 220 140" width="220px" height="140px" style="enable-background:new 0 0 220 140" xml:space="preserve"><style>.st0{fill:#0047b5}.st2{fill:#fff}</style><path class="st0" d="m104.8 34.7-46 12.9c-3.7 1.1-6.3 4.5-6.3 8.3V84c0 3.9 2.6 7.3 6.3 8.3l46 12.9c3.4 1 7 1 10.4 0l46-12.9c3.7-1.1 6.3-4.5 6.3-8.3V55.9c0-3.9-2.6-7.3-6.3-8.3l-46-12.9c-3.4-1-7-1-10.4 0z"/><path d="m160.5 50.3-46-12.9c-3-.8-6.1-.8-8.9 0l-46 12.9c-2.5.7-4.3 3-4.3 5.7v28.1c0 2.6 1.8 5 4.3 5.7l46 12.9c2.7.8 5.8.9 8.9 0l46-12.9c2.5-.7 4.3-3 4.3-5.7V55.9c0-2.6-1.8-4.9-4.3-5.6zm2.3 33.8c0 1.7-1.2 3.3-2.8 3.7l-46 12.9c-2.4.7-5.1.8-7.9 0l-46-12.9c-1.7-.5-2.8-2-2.8-3.7V55.9c0-1.7 1.2-3.3 2.8-3.7l46-12.9c2.4-.7 5.1-.8 7.9 0l46 12.9c1.7.5 2.8 2 2.8 3.7v28.2z" style="fill:#d03242"/><path class="st2" d="M147.7 81.8c0-.7-.3-1.1-.9-1.1-.5 0-.9.3-1.2.6v-.4h-1.2v.1h.3v2.8h-.3v.2h1.5v-.2h-.3v-2.4c.2-.1.5-.3.7-.3.4 0 .6.2.6.8v1.9h-.3v.2h1.5v-.2h-.3v-2zm-5.6-1.1c-1.1 0-1.8.7-1.8 1.8 0 1.3.7 1.7 1.7 1.7 1.1 0 1.8-.7 1.8-1.7.1-1.2-.6-1.8-1.7-1.8zm0 3.2c-.5 0-.8-.4-.8-1.5s.3-1.5.8-1.5.8.4.8 1.5-.3 1.5-.8 1.5zm-2.9-.9v-1.9h.8v-.3h-.8v-1l-.9.3v.7h-.6v.3h.6v2.2c0 .6.2.9.8.9.3 0 .7-.1 1.1-.2v-.2c-.1.1-.3.1-.5.1-.4-.2-.5-.3-.5-.9zm-2.1-3.7h-1.2v.2l.3.1v4.3h-.3v.2h1.5v-.2h-.3v-4.6zm-2.5 1c.3 0 .5-.2.5-.6 0-.3-.2-.5-.5-.5s-.5.2-.5.5c0 .4.2.6.5.6zm.4.5h-1.2v.2l.3.1v2.8h-.3v.2h1.5v-.2h-.3v-3.1zm-3.5-1.1h.3v1.8h-2v-1.8h.3v-.2h-1.6v.2h.3v4.1h-.3v.2h1.6v-.2h-.3v-1.9h2v1.9h-.3v.2h1.6v-.2h-.3v-4.1h.3v-.2h-1.6v.2zM126 81h.3l-.8 2-.9-2 .3-.1v-.2h-1.4v.3l.2.1 1.4 3.1v.1c-.2.4-.5 1-.9 1-.1 0-.2 0-.3-.1l-.1-.3h-.2v.7c.2 0 .3.1.6.1.6 0 .9-.6 1.2-1.3l1.3-3.3h.3v-.2h-1v.1zm-4-.3c-.3 0-.7.2-1.1.5v-1.9h-1.1v.2l.3.1v4.3h-.3v.2h1.1v-.2c.2.1.5.2.9.2 1 0 1.6-.7 1.6-1.8-.1-.9-.6-1.6-1.4-1.6zm-.4 3.1c-.3 0-.5-.2-.8-.3v-2.1c.2-.1.4-.2.6-.2.6 0 .9.5.9 1.2.1.9-.2 1.4-.7 1.4zM85.3 66.1c0-.1-.1-.2-.2-.2h-1.4c1.3-3.8 3-8 5.6-10.6.1-.1.1-.2.1-.3 0-.2-.1-.3-.4-.3-1.1 0-5.5 2.2-8.5 11.2h-4.4c1.1-3.7 1.8-6.2 3.4-8.4.2-.3.3-.6.3-.7 0-.3-.3-.4-.9-.4-3.9-.1-9.8 1.2-9.8 3.4 0 .4.1.7.4.7.1 0 .2 0 .3-.1 1.5-1.4 4.1-2.8 8.4-3.3-2.1 1.3-4 5.1-5.2 8.8h-1.1c-.8 0-1.3.7-1.3.9 0 .1.1.2.2.2h1.9c0 .2-.1.3-.1.5-1.6 5.5-3.5 12.1-8.3 12.1-1 0-1.8-.4-2.4-1-.1-.1-.2-.1-.3-.1-.2 0-.3.2-.3.4 0 1 1.3 1.8 2.8 1.8 6.3 0 9.9-6.9 11.7-13.3 0-.2.1-.3.1-.5h4.3c-2.6 8.6-.2 13 1.1 13 .2 0 .3-.2.3-.4-.7-3.1.2-7.8 1.7-12.5h.6c.9 0 1.4-.7 1.4-.9zm70.6 7.7c-.1 0-.2.1-.3.2-.8 1.2-2.1 1.9-3.2 1.9-1.9 0-2.6-1.8-1.6-5.1l1.4-4.4c.6-2 .3-3.9-1.6-3.9-1.5 0-2.8 1.1-3.8 2.5.2-1.1-.1-2.3-1.6-2.3-.3 0-.5 0-.6.3l-.2.5c-.6 1.8-2 3-3.3 3.5v-1c0-1.9-.9-3.4-2.9-3.4-3 0-5.1 2.7-5.9 5.6-.2.6-.4 1.1-.6 1.6-.8 1.5-2 3-2.9 3-.6 0-.6-.7-.2-2l2.3-7.1h1.8c.7 0 1.1-.5 1.1-.7 0-.1-.1-.1-.2-.1h-2.5l1.3-4.1c.1-.4-.2-.5-.7-.5-1.3 0-2.2.7-2.6 1.8l-.9 2.8h-1.1c-.7 0-1.1.5-1.1.7 0 .1.1.1.2.1h1.8l-2 6.2c-.6 1.9-1.8 3.3-3.4 3.3-.3 0-.6 0-.8-.1 3.2-3.4 4.4-10.5.5-10.5-1.2 0-2.4.8-3.3 2 .1-1-.3-1.8-1.7-1.8-.3 0-.5 0-.6.3l-1.7 5.5c-.6 2-2.3 4.3-3.5 4.3-.6 0-.6-.7-.2-2l1.4-4.4c.6-2 .3-3.9-1.6-3.9-1.6 0-2.9 1.2-4 2.7.2-1.5-.4-2.7-1.9-2.7s-2.8 1.1-3.8 2.5c.2-1.1-.1-2.3-1.6-2.3-.3 0-.5 0-.6.3l-1.8 5.5c-.6 1.9-2.4 4.3-3.4 4.3-.6 0-.6-.7-.2-2l2.4-7.5c.1-.4-.1-.5-.7-.5-1.2 0-2 .6-2.4 1.5-.2-1-.8-1.7-1.9-1.7-5.6 0-9.1 12.2-4 12.2 1.3 0 2.5-.9 3.5-2.3 0 1.3.5 2.3 1.9 2.3 1.5 0 2.8-1.1 3.8-2.5-.2 1.1-.1 2.3 1.4 2.3.4 0 .7 0 .8-.3l1.6-4.9c.9-2.7 2.5-4.9 3.7-4.9.6 0 .6.7.2 2l-1.7 5.2c-.5 1.6-.3 2.8 1.3 2.8.4 0 .7 0 .8-.3l1.6-4.9c.9-2.7 2.5-4.9 3.7-4.9.6 0 .6.7.2 2l-1.4 4.4c-.6 2-.3 3.9 1.6 3.9 1.5 0 2.8-1.1 3.8-2.5l-1.3 4.1c-.5 1.6-.3 2.8 1.3 2.8.4 0 .7 0 .8-.3l1.8-5.7c.2.9.8 1.6 1.9 1.6.9 0 1.8-.4 2.6-.9.5.2 1 .4 1.6.4 1.1 0 2.1-.4 2.9-1.5 0 1.2.6 2.1 1.9 2.1 2 0 3.7-2 4.7-3.9 0 2.1 1 3.9 3.2 3.9 3.1 0 5.2-3.4 5.8-6.7.9-.3 1.7-.8 2.5-1.5l-1.7 5.2c-.5 1.6-.3 2.8 1.3 2.8.4 0 .7 0 .8-.3l1.6-4.9c.9-2.7 2.5-4.9 3.6-4.9.6 0 .6.7.2 2l-1 3.2c-1.4 4.5.1 7.3 3.5 7.3 2.3 0 4.4-1.6 4.4-3-.1-.2-.3-.3-.5-.3zm-67.4-1c-2.3 0 .3-8.6 3.1-8.6.5 0 .9.4.9 1.2-.1 1.7-1.9 7.4-4 7.4zm29.5.2c-.5 0-.9-.4-.9-1.2 0-1.7 1.9-7.3 3.9-7.3 2.4 0-.3 8.5-3 8.5zm18 .2c-.9 0-1.2-1.1-1.2-2.3 0-1.7.6-3.8 1.4-5.3.1 1.7 1.4 2.6 3.1 2.7-.5 2.4-1.7 4.9-3.3 4.9zm3.5-5.9c-1.2 0-2.1-.7-2.1-2 0-.8.5-1.5 1.1-1.5.8 0 1.1.9 1.1 2 0 .5 0 1-.1 1.5z"/><path class="st0" d="M163.4 96.3v-2.1h-.7v-.4h1.9v.4h-.8v2.1zM166.7 96.3v-1.8l-.6 1.4h-.3l-.6-1.4v1.8h-.4v-2.4h.5c.1.1.5 1.1.6 1.4.1-.3.6-1.3.6-1.4h.5v2.4h-.3z"/><path style="fill:none" d="M0 0h220v140H0z"/></svg>