<svg width="220" height="140" viewBox="0 0 220 140" fill="none" xmlns="http://www.w3.org/2000/svg">
<g clip-path="url(#clip0_1_22)">
<path d="M23.4843 75.4057H29.9115V34.0271H23.4843V33.1792H42.1381V34.0271H35.708V75.4057H46.0193C49.4196 75.4057 52.0845 74.2971 54.0167 72.0795C55.946 69.862 57.3547 66.8363 58.2458 63.0052H58.8823V76.2537H23.4843V75.4057Z" fill="#0B4228"/>
<path d="M89.7034 75.4059H95.265L106.852 55.2014L94.5124 34.0271H89.7034V33.1793H106.968V34.0271H101.409L110.677 49.9383L119.947 34.0271H114.386V33.1793H126.437V34.0271H120.875L111.2 50.7834L125.625 75.4059H130.434V76.2537H113.053V75.4059H118.615L107.316 56.0493L96.2523 75.4059H101.811V76.2537H89.7034V75.4059Z" fill="#0B4228"/>
<path d="M169.192 52.7224H174.524C175.605 52.7224 176.587 52.5806 177.475 52.297C178.363 52.0163 179.127 51.5229 179.766 50.8139C180.403 50.1107 180.895 49.1522 181.24 47.9414C181.591 46.7305 181.764 45.1992 181.764 43.3418C181.764 41.2462 181.503 39.5618 180.98 38.2914C180.462 37.021 179.783 36.0654 178.954 35.4189C178.123 34.7752 177.195 34.3526 176.174 34.1485C175.149 33.9471 174.137 33.845 173.132 33.845C172.437 33.845 171.732 33.8564 171.016 33.8762C170.304 33.8961 169.693 33.9471 169.192 34.0294V52.7224ZM156.968 75.4052H163.398V34.0294H156.968V33.1815H167.975C168.437 33.1815 168.9 33.173 169.367 33.1503C169.828 33.1304 170.292 33.1021 170.756 33.0596C171.22 33.0596 171.681 33.051 172.145 33.0312C172.612 33.0085 173.073 33 173.534 33C175.814 33 177.826 33.1304 179.563 33.3942C181.3 33.6551 182.923 34.4122 184.428 35.6599C185.78 36.7516 186.737 37.9824 187.297 39.352C187.854 40.7245 188.137 42.0119 188.137 43.2227C188.137 43.8267 188.029 44.6037 187.82 45.5537C187.605 46.5008 187.141 47.4678 186.428 48.4546C185.713 49.4443 184.677 50.3517 183.328 51.1798C181.976 52.005 180.182 52.5607 177.939 52.8415V52.9634C178.555 53.0456 179.399 53.1931 180.462 53.4171C181.523 53.6383 182.604 54.0098 183.704 54.5344C184.805 55.0619 185.817 55.7566 186.748 56.6215C187.673 57.492 188.329 58.6094 188.717 59.9789C188.946 60.7872 189.113 61.7058 189.209 62.7324C189.303 63.7589 189.382 64.8195 189.441 65.9084C189.498 66.9973 189.557 68.0466 189.616 69.056C189.673 70.0627 189.778 70.9078 189.933 71.5969C190.165 72.6433 190.53 73.5903 191.034 74.4382C191.534 75.286 192.346 75.7087 193.464 75.7087C193.967 75.7087 194.491 75.6094 195.031 75.4052C195.571 75.2039 196.052 74.8835 196.479 74.4382L197 75.1019C196.808 75.2663 196.584 75.4364 196.332 75.618C196.083 75.7966 195.767 75.9696 195.376 76.1341C194.991 76.2928 194.519 76.426 193.959 76.5253C193.399 76.6245 192.714 76.6756 191.902 76.6756C190.358 76.6756 189.073 76.4744 188.049 76.0716C187.025 75.6689 186.205 75.0734 185.588 74.288C184.969 73.4997 184.516 72.5327 184.227 71.3841C183.936 70.233 183.732 68.8915 183.619 67.3603L183.209 61.8562C183.059 59.8401 182.672 58.2661 182.052 57.1347C181.435 56.0062 180.708 55.181 179.879 54.6563C179.051 54.1345 178.191 53.8198 177.302 53.7206C176.414 53.6185 175.642 53.5674 174.985 53.5674H169.192V75.4052H175.622V76.253H156.968V75.4052Z" fill="#0B4228"/>
<path d="M23.3593 106.936H24.6973V98.3154H23.3593V98.1368H27.2462V98.3154H25.9053V102.436H29.9251V98.3154H28.5871V98.1368H32.4712V98.3154H31.1331V106.936H32.4712V107.112H28.5871V106.936H29.9251V102.612H25.9053V106.936H27.2462V107.112H23.3593V106.936Z" fill="#0B4228"/>
<path d="M37.6378 102.612C37.6378 103.369 37.6859 104.03 37.7821 104.589C37.8783 105.153 38.0395 105.624 38.2658 106.004C38.4893 106.381 38.7807 106.662 39.1343 106.846C39.4879 107.033 39.9264 107.124 40.4498 107.124C40.9674 107.124 41.4003 107.033 41.7596 106.846C42.1188 106.662 42.4102 106.381 42.6336 106.004C42.86 105.624 43.0213 105.153 43.1174 104.589C43.2136 104.03 43.2618 103.369 43.2618 102.612C43.2618 102.034 43.2249 101.475 43.1542 100.931C43.0806 100.389 42.942 99.904 42.7356 99.4816C42.5318 99.0562 42.2461 98.7187 41.8783 98.4663C41.5134 98.2169 41.0353 98.0892 40.4498 98.0892C39.8613 98.0892 39.3833 98.2169 39.0212 98.4663C38.6534 98.7187 38.3677 99.0562 38.1612 99.4816C37.9575 99.904 37.8189 100.389 37.7453 100.931C37.6746 101.475 37.6378 102.034 37.6378 102.612ZM36.2488 102.612C36.2488 101.94 36.3761 101.319 36.6307 100.749C36.8825 100.176 37.2107 99.6801 37.6067 99.2604C38.0056 98.8406 38.4526 98.5088 38.9533 98.2735C39.454 98.0325 39.9519 97.9106 40.4498 97.9106C40.9787 97.9106 41.4993 98.0325 42.0029 98.2735C42.5035 98.5088 42.9533 98.8406 43.3465 99.2604C43.7425 99.6801 44.0566 100.176 44.2943 100.749C44.5318 101.319 44.6506 101.94 44.6506 102.612C44.6506 103.202 44.5403 103.775 44.3254 104.339C44.1076 104.903 43.8106 105.403 43.4314 105.839C43.0523 106.276 42.6082 106.63 42.0961 106.9C41.587 107.166 41.0353 107.302 40.4498 107.302C39.8472 107.302 39.2871 107.172 38.7694 106.911C38.2574 106.65 37.8132 106.304 37.437 105.87C37.0636 105.437 36.7722 104.937 36.5629 104.373C36.3563 103.806 36.2488 103.219 36.2488 102.612Z" fill="#0B4228"/>
<path d="M50.1292 106.936H51.4701V98.3154H50.7713C50.6101 98.3154 50.429 98.3297 50.2253 98.3609C50.0245 98.3892 49.8209 98.4715 49.6171 98.6048C49.4106 98.738 49.2126 98.9506 49.0259 99.2428C48.8364 99.532 48.6723 99.9319 48.5364 100.445H48.4035V98.1368H55.7445V100.445H55.6088C55.4729 99.9319 55.3116 99.532 55.1194 99.2428C54.9326 98.9506 54.7346 98.738 54.5281 98.6048C54.3243 98.4715 54.1208 98.3892 53.9198 98.3609C53.719 98.3297 53.538 98.3154 53.3767 98.3154H52.678V106.936H54.016V107.112H50.1292V106.936Z" fill="#0B4228"/>
<path d="M59.8816 106.936H61.2224V98.3154H59.8816V98.1368H66.7841V100.318H66.654C66.5465 99.9886 66.4361 99.705 66.3145 99.4554C66.1957 99.2058 66.0514 98.999 65.8788 98.8259C65.712 98.6529 65.5112 98.5254 65.2763 98.4431C65.0443 98.358 64.7614 98.3154 64.4332 98.3154H62.4303V102.209H63.2112C63.4799 102.209 63.7035 102.183 63.8902 102.132C64.0769 102.084 64.2352 101.988 64.3654 101.852C64.4983 101.713 64.6114 101.523 64.7021 101.285C64.7953 101.043 64.8858 100.734 64.9765 100.357H65.1094V104.276H64.9765C64.9199 104.032 64.8604 103.797 64.8011 103.573C64.7416 103.343 64.6568 103.142 64.5463 102.966C64.439 102.79 64.2918 102.648 64.1108 102.546C63.9325 102.439 63.6977 102.388 63.4063 102.388H62.4303V106.936H64.7104C65.1546 106.936 65.5223 106.837 65.8165 106.641C66.108 106.443 66.3484 106.204 66.5324 105.935C66.7161 105.66 66.852 105.376 66.9453 105.084C67.033 104.787 67.0867 104.545 67.1123 104.353H67.2452V107.112H59.8816V106.936Z" fill="#0B4228"/>
<path d="M71.6988 106.936H73.0368V98.3154H71.6988V98.1368H75.5857V98.3154H74.2447V106.936H76.3948C77.102 106.936 77.6565 106.704 78.0611 106.244C78.4627 105.782 78.7569 105.149 78.9408 104.353H79.0737V107.112H71.6988V106.936Z" fill="#0B4228"/>
<path d="M83.8285 104.401H83.9614C84.0491 104.855 84.1622 105.238 84.3037 105.55C84.4481 105.862 84.6009 106.117 84.7705 106.318C84.9374 106.523 85.1157 106.676 85.3024 106.783C85.4834 106.894 85.6729 106.974 85.8625 107.022C86.052 107.073 86.233 107.104 86.4056 107.112C86.5782 107.121 86.7423 107.124 86.8951 107.124C87.3222 107.124 87.6702 107.058 87.9446 106.922C88.2161 106.789 88.4339 106.619 88.5952 106.412C88.7565 106.208 88.8696 105.984 88.9347 105.746C88.9998 105.505 89.0309 105.283 89.0309 105.082C89.0309 104.79 88.9771 104.538 88.8752 104.325C88.7706 104.115 88.6377 103.936 88.4764 103.792C88.3151 103.644 88.1369 103.525 87.9502 103.432C87.7607 103.338 87.5825 103.267 87.4127 103.219L86.0266 102.777C85.3731 102.567 84.8808 102.289 84.5471 101.946C84.2132 101.6 84.0463 101.14 84.0463 100.556C84.0463 100.182 84.1114 99.8274 84.2386 99.507C84.3688 99.1838 84.5499 98.903 84.7818 98.6705C85.0166 98.4323 85.2939 98.2479 85.6221 98.1119C85.9473 97.9814 86.3038 97.9106 86.6913 97.9106C86.9714 97.9106 87.2062 97.9388 87.3957 97.9872C87.5853 98.0381 87.7464 98.0948 87.8851 98.1544C88.0208 98.2224 88.1454 98.2791 88.253 98.3274C88.3603 98.3784 88.4708 98.404 88.5839 98.404C88.6885 98.404 88.7593 98.3869 88.796 98.3587C88.8299 98.3302 88.8809 98.2565 88.946 98.1403H89.1157V100.42H88.9714C88.9234 100.117 88.8385 99.8246 88.7226 99.5438C88.6037 99.2632 88.4565 99.0136 88.2698 98.801C88.0831 98.5854 87.8625 98.4124 87.6022 98.2821C87.3391 98.1544 87.0336 98.0892 86.6913 98.0892C86.4961 98.0892 86.2812 98.1147 86.0493 98.1685C85.8144 98.2252 85.5965 98.3189 85.3957 98.4549C85.1977 98.5854 85.0308 98.767 84.8979 98.9824C84.7648 99.2008 84.6969 99.4788 84.6969 99.8161C84.6969 100.083 84.7507 100.312 84.8554 100.502C84.96 100.692 85.0929 100.851 85.257 100.982C85.4241 101.109 85.6078 101.22 85.8144 101.308C86.0209 101.396 86.2246 101.475 86.4368 101.54L87.8964 102.022C88.0464 102.07 88.2417 102.139 88.4764 102.224C88.7083 102.306 88.9347 102.433 89.1581 102.601C89.3787 102.768 89.5684 102.992 89.724 103.267C89.8795 103.545 89.9587 103.9 89.9587 104.325C89.9587 104.722 89.8908 105.096 89.7494 105.453C89.6079 105.811 89.4043 106.126 89.1383 106.401C88.8752 106.673 88.55 106.894 88.1708 107.056C87.7946 107.22 87.3703 107.302 86.8951 107.302C86.7252 107.302 86.5754 107.3 86.4481 107.294C86.3179 107.291 86.1991 107.28 86.086 107.263C85.9729 107.249 85.8625 107.229 85.7465 107.209C85.6334 107.186 85.5118 107.155 85.3731 107.112C85.2118 107.064 85.0392 107.005 84.8554 106.937C84.6687 106.866 84.5074 106.837 84.3717 106.837C84.2529 106.837 84.168 106.86 84.1255 106.911C84.0803 106.962 84.0406 107.027 84.0096 107.112H83.8285V104.401Z" fill="#0B4228"/>
<path d="M104.724 99.1472C104.724 99.3656 104.781 99.6236 104.896 99.9298C105.012 100.231 105.145 100.534 105.29 100.835C105.428 100.749 105.561 100.664 105.694 100.571C105.827 100.48 105.943 100.369 106.045 100.242C106.144 100.12 106.229 99.9696 106.291 99.8023C106.353 99.6349 106.387 99.4364 106.387 99.2097C106.387 98.9233 106.319 98.6737 106.189 98.4525C106.056 98.2369 105.83 98.1263 105.507 98.1263C105.298 98.1263 105.111 98.2228 104.959 98.4155C104.8 98.6084 104.724 98.8495 104.724 99.1472ZM104.288 101.464C103.87 101.691 103.536 101.955 103.287 102.252C103.035 102.55 102.913 102.944 102.913 103.435C102.913 103.809 102.976 104.206 103.106 104.623C103.233 105.04 103.403 105.42 103.612 105.763C103.821 106.106 104.056 106.392 104.317 106.617C104.58 106.835 104.843 106.948 105.109 106.948C105.397 106.948 105.669 106.877 105.923 106.73C106.178 106.58 106.418 106.398 106.642 106.18L104.288 101.464ZM107.451 105.17C107.686 104.762 107.844 104.351 107.926 103.948C108.011 103.545 108.053 103.14 108.053 102.74C108.053 102.335 108.037 102.014 108 101.776C107.963 101.535 107.901 101.351 107.81 101.226C107.723 101.101 107.607 101.022 107.457 100.979C107.31 100.945 107.12 100.922 106.894 100.922V100.749H109.188V100.922C108.979 100.922 108.809 100.953 108.682 101.013C108.551 101.07 108.452 101.163 108.385 101.291C108.317 101.416 108.274 101.577 108.254 101.776C108.232 101.972 108.22 102.21 108.22 102.488C108.22 102.834 108.206 103.137 108.172 103.407C108.141 103.679 108.096 103.923 108.042 104.144C107.986 104.365 107.912 104.578 107.824 104.773C107.737 104.972 107.641 105.167 107.536 105.36C107.742 105.763 107.929 106.081 108.09 106.313C108.251 106.543 108.435 106.659 108.645 106.659C108.775 106.659 108.877 106.619 108.953 106.546C109.029 106.469 109.086 106.373 109.128 106.256C109.165 106.137 109.196 106.01 109.211 105.871C109.23 105.735 109.236 105.596 109.236 105.462H109.406C109.406 105.814 109.361 106.106 109.273 106.336C109.185 106.568 109.072 106.755 108.942 106.897C108.809 107.042 108.656 107.141 108.489 107.201C108.32 107.26 108.158 107.289 108.005 107.289C107.836 107.289 107.691 107.271 107.57 107.232C107.451 107.195 107.344 107.135 107.253 107.056C107.16 106.977 107.072 106.877 106.99 106.761C106.911 106.642 106.82 106.503 106.727 106.344C106.631 106.443 106.509 106.548 106.365 106.659C106.218 106.767 106.056 106.869 105.875 106.962C105.694 107.053 105.496 107.133 105.278 107.195C105.058 107.257 104.826 107.289 104.577 107.289C104.07 107.289 103.643 107.187 103.298 106.979C102.95 106.775 102.673 106.526 102.461 106.236C102.246 105.947 102.096 105.641 102.005 105.318C101.918 104.992 101.875 104.717 101.875 104.492C101.875 104.053 101.949 103.67 102.096 103.344C102.246 103.018 102.435 102.729 102.665 102.479C102.891 102.235 103.145 102.017 103.417 101.833C103.691 101.648 103.957 101.478 104.215 101.328C104.127 101.144 104.039 100.925 103.952 100.678C103.861 100.429 103.816 100.131 103.816 99.7797C103.816 99.4931 103.867 99.2379 103.963 99.014C104.059 98.7928 104.184 98.6027 104.336 98.4412C104.489 98.2795 104.664 98.1604 104.862 98.0752C105.058 97.9931 105.259 97.9505 105.457 97.9505C105.765 97.9505 106.022 98.0526 106.237 98.2511C106.452 98.4525 106.557 98.7672 106.557 99.1954C106.557 99.4507 106.517 99.6689 106.444 99.859C106.365 100.049 106.271 100.213 106.153 100.355C106.036 100.5 105.904 100.622 105.762 100.721C105.615 100.82 105.476 100.911 105.349 100.988L107.451 105.17Z" fill="#0B4228"/>
<path d="M123.263 102.21H124.375C124.598 102.21 124.805 102.179 124.989 102.12C125.172 102.063 125.331 101.961 125.467 101.813C125.597 101.666 125.701 101.465 125.775 101.215C125.846 100.963 125.883 100.645 125.883 100.256C125.883 99.8198 125.829 99.4681 125.718 99.2044C125.611 98.9379 125.469 98.7394 125.297 98.6034C125.124 98.4701 124.929 98.3822 124.717 98.3396C124.502 98.2999 124.293 98.2772 124.083 98.2772C123.939 98.2772 123.792 98.28 123.642 98.283C123.495 98.2885 123.365 98.2999 123.263 98.317V102.21ZM120.714 106.937H122.055V98.317H120.714V98.1382H123.008C123.107 98.1382 123.201 98.1354 123.3 98.1326C123.396 98.1298 123.492 98.1213 123.588 98.1155C123.684 98.1155 123.781 98.1127 123.877 98.107C123.973 98.1042 124.069 98.1014 124.168 98.1014C124.643 98.1014 125.059 98.1298 125.421 98.1835C125.786 98.2374 126.123 98.3935 126.437 98.6573C126.717 98.8812 126.918 99.1392 127.037 99.4256C127.15 99.7092 127.206 99.9786 127.206 100.231C127.206 100.356 127.184 100.52 127.141 100.716C127.096 100.914 127.003 101.116 126.853 101.323C126.706 101.527 126.491 101.717 126.205 101.887C125.925 102.06 125.551 102.174 125.085 102.233V102.261C125.215 102.276 125.387 102.31 125.611 102.355C125.832 102.403 126.058 102.477 126.287 102.587C126.516 102.698 126.728 102.843 126.921 103.021C127.113 103.203 127.249 103.435 127.331 103.722C127.379 103.889 127.413 104.082 127.433 104.295C127.453 104.51 127.469 104.728 127.481 104.958C127.492 105.185 127.504 105.403 127.515 105.613C127.529 105.823 127.549 106.002 127.583 106.143C127.631 106.359 127.71 106.557 127.812 106.733C127.916 106.912 128.083 107 128.318 107C128.426 107 128.533 106.977 128.644 106.937C128.757 106.895 128.858 106.827 128.949 106.733L129.056 106.872C129.017 106.906 128.972 106.943 128.915 106.98C128.864 107.017 128.799 107.054 128.717 107.088C128.638 107.122 128.539 107.147 128.423 107.17C128.304 107.187 128.163 107.201 127.993 107.201C127.673 107.201 127.404 107.159 127.192 107.073C126.98 106.991 126.808 106.867 126.677 106.702C126.547 106.54 126.457 106.336 126.394 106.098C126.332 105.86 126.293 105.579 126.267 105.259L126.182 104.113C126.151 103.693 126.069 103.364 125.942 103.132C125.812 102.894 125.662 102.721 125.489 102.613C125.317 102.502 125.136 102.44 124.952 102.417C124.768 102.397 124.607 102.386 124.468 102.386H123.263V106.937H124.601V107.113H120.714V106.937Z" fill="#0B4228"/>
<path d="M132.749 106.936H134.087V98.3154H132.749V98.1368H139.651V100.318H139.521C139.414 99.9886 139.303 99.705 139.182 99.4554C139.06 99.2058 138.916 98.999 138.746 98.8259C138.579 98.6529 138.378 98.5254 138.143 98.4431C137.912 98.358 137.629 98.3154 137.298 98.3154H135.295V102.209H136.078C136.347 102.209 136.571 102.183 136.757 102.132C136.944 102.084 137.1 101.988 137.233 101.852C137.366 101.713 137.479 101.523 137.569 101.285C137.663 101.043 137.753 100.734 137.844 100.357H137.977V104.276H137.844C137.787 104.032 137.728 103.797 137.668 103.573C137.609 103.343 137.524 103.142 137.414 102.966C137.306 102.79 137.159 102.648 136.978 102.546C136.8 102.439 136.565 102.388 136.271 102.388H135.295V106.936H137.578C138.019 106.936 138.39 106.837 138.681 106.641C138.975 106.443 139.216 106.204 139.4 105.935C139.583 105.66 139.722 105.376 139.81 105.084C139.9 104.787 139.954 104.545 139.98 104.353H140.112V107.112H132.749V106.936Z" fill="#0B4228"/>
<path d="M145.109 104.401H145.242C145.329 104.855 145.446 105.238 145.584 105.55C145.726 105.862 145.881 106.117 146.051 106.318C146.218 106.523 146.396 106.676 146.58 106.783C146.764 106.894 146.953 106.974 147.143 107.022C147.332 107.073 147.514 107.104 147.686 107.112C147.856 107.121 148.02 107.124 148.175 107.124C148.603 107.124 148.951 107.058 149.225 106.922C149.497 106.789 149.714 106.619 149.876 106.412C150.037 106.208 150.15 105.984 150.215 105.746C150.28 105.505 150.309 105.283 150.309 105.082C150.309 104.79 150.258 104.538 150.156 104.325C150.051 104.115 149.918 103.936 149.757 103.792C149.596 103.644 149.417 103.525 149.231 103.432C149.041 103.338 148.863 103.267 148.693 103.219L147.307 102.777C146.653 102.567 146.161 102.289 145.827 101.946C145.491 101.6 145.327 101.14 145.327 100.556C145.327 100.182 145.389 99.8274 145.519 99.507C145.649 99.1838 145.83 98.903 146.062 98.6705C146.297 98.4323 146.574 98.2479 146.9 98.1119C147.228 97.9814 147.584 97.9106 147.972 97.9106C148.252 97.9106 148.484 97.9388 148.676 97.9872C148.863 98.0381 149.027 98.0948 149.166 98.1544C149.301 98.2224 149.423 98.2791 149.531 98.3274C149.641 98.3784 149.751 98.404 149.864 98.404C149.969 98.404 150.04 98.3869 150.076 98.3587C150.11 98.3302 150.161 98.2565 150.226 98.1403H150.396V100.42H150.249C150.204 100.117 150.119 99.8246 150.003 99.5438C149.884 99.2632 149.737 99.0136 149.55 98.801C149.364 98.5854 149.143 98.4124 148.883 98.2821C148.62 98.1544 148.314 98.0892 147.972 98.0892C147.777 98.0892 147.562 98.1147 147.33 98.1685C147.095 98.2252 146.877 98.3189 146.676 98.4549C146.478 98.5854 146.308 98.767 146.175 98.9824C146.045 99.2008 145.977 99.4788 145.977 99.8161C145.977 100.083 146.031 100.312 146.136 100.502C146.24 100.692 146.373 100.851 146.538 100.982C146.704 101.109 146.888 101.22 147.095 101.308C147.301 101.396 147.505 101.475 147.714 101.54L149.177 102.022C149.327 102.07 149.522 102.139 149.757 102.224C149.989 102.306 150.215 102.433 150.438 102.601C150.659 102.768 150.849 102.992 151.004 103.267C151.16 103.545 151.239 103.9 151.239 104.325C151.239 104.722 151.171 105.096 151.03 105.453C150.888 105.811 150.685 106.126 150.419 106.401C150.156 106.673 149.83 106.894 149.451 107.056C149.075 107.22 148.648 107.302 148.175 107.302C148.006 107.302 147.856 107.3 147.728 107.294C147.598 107.291 147.477 107.28 147.366 107.263C147.253 107.249 147.143 107.229 147.027 107.209C146.914 107.186 146.789 107.155 146.653 107.112C146.492 107.064 146.32 107.005 146.136 106.937C145.949 106.866 145.788 106.837 145.652 106.837C145.53 106.837 145.448 106.86 145.403 106.911C145.361 106.962 145.321 107.027 145.29 107.112H145.109V104.401Z" fill="#0B4228"/>
<path d="M156.575 102.612C156.575 103.369 156.623 104.03 156.719 104.589C156.818 105.153 156.977 105.624 157.203 106.004C157.426 106.381 157.718 106.662 158.071 106.846C158.425 107.033 158.864 107.124 159.387 107.124C159.905 107.124 160.337 107.033 160.697 106.846C161.056 106.662 161.347 106.381 161.571 106.004C161.797 105.624 161.958 105.153 162.055 104.589C162.151 104.03 162.199 103.369 162.199 102.612C162.199 102.034 162.162 101.475 162.091 100.931C162.018 100.389 161.879 99.904 161.673 99.4816C161.469 99.0562 161.183 98.7187 160.818 98.4663C160.451 98.2169 159.972 98.0892 159.387 98.0892C158.801 98.0892 158.323 98.2169 157.958 98.4663C157.591 98.7187 157.305 99.0562 157.098 99.4816C156.895 99.904 156.756 100.389 156.682 100.931C156.612 101.475 156.575 102.034 156.575 102.612ZM155.186 102.612C155.186 101.94 155.313 101.319 155.568 100.749C155.82 100.176 156.148 99.6801 156.544 99.2604C156.946 98.8406 157.39 98.5088 157.89 98.2735C158.391 98.0325 158.889 97.9106 159.387 97.9106C159.919 97.9106 160.436 98.0325 160.94 98.2735C161.441 98.5088 161.89 98.8406 162.284 99.2604C162.68 99.6801 162.994 100.176 163.231 100.749C163.469 101.319 163.588 101.94 163.588 102.612C163.588 103.202 163.48 103.775 163.262 104.339C163.045 104.903 162.748 105.403 162.369 105.839C161.989 106.276 161.545 106.63 161.036 106.9C160.524 107.166 159.972 107.302 159.387 107.302C158.784 107.302 158.224 107.172 157.706 106.911C157.195 106.65 156.75 106.304 156.377 105.87C156.001 105.437 155.709 104.937 155.5 104.373C155.293 103.806 155.186 103.219 155.186 102.612Z" fill="#0B4228"/>
<path d="M169.912 102.21H171.023C171.247 102.21 171.453 102.179 171.64 102.12C171.821 102.063 171.982 101.961 172.115 101.813C172.248 101.666 172.35 101.465 172.424 101.215C172.494 100.963 172.531 100.645 172.531 100.256C172.531 99.8198 172.477 99.4681 172.367 99.2044C172.262 98.9379 172.118 98.7394 171.946 98.6034C171.773 98.4701 171.581 98.3822 171.366 98.3396C171.153 98.2999 170.944 98.2772 170.732 98.2772C170.588 98.2772 170.443 98.28 170.291 98.283C170.143 98.2885 170.016 98.2999 169.912 98.317V102.21ZM167.366 106.937H168.704V98.317H167.366V98.1382H169.66C169.756 98.1382 169.852 98.1354 169.948 98.1326C170.047 98.1298 170.141 98.1213 170.24 98.1155C170.336 98.1155 170.432 98.1127 170.525 98.107C170.624 98.1042 170.721 98.1014 170.817 98.1014C171.292 98.1014 171.711 98.1298 172.073 98.1835C172.435 98.2374 172.774 98.3935 173.086 98.6573C173.368 98.8812 173.566 99.1392 173.685 99.4256C173.801 99.7092 173.861 99.9786 173.861 100.231C173.861 100.356 173.835 100.52 173.793 100.716C173.748 100.914 173.651 101.116 173.501 101.323C173.354 101.527 173.139 101.717 172.856 101.887C172.574 102.06 172.2 102.174 171.733 102.233V102.261C171.863 102.276 172.039 102.31 172.262 102.355C172.483 102.403 172.706 102.477 172.936 102.587C173.165 102.698 173.377 102.843 173.569 103.021C173.762 103.203 173.898 103.435 173.979 103.722C174.03 103.889 174.064 104.082 174.084 104.295C174.104 104.51 174.118 104.728 174.132 104.958C174.144 105.185 174.155 105.403 174.166 105.613C174.177 105.823 174.2 106.002 174.234 106.143C174.282 106.359 174.359 106.557 174.463 106.733C174.568 106.912 174.735 107 174.97 107C175.074 107 175.182 106.977 175.295 106.937C175.408 106.895 175.51 106.827 175.598 106.733L175.705 106.872C175.666 106.906 175.62 106.943 175.567 106.98C175.516 107.017 175.448 107.054 175.369 107.088C175.286 107.122 175.19 107.147 175.071 107.17C174.955 107.187 174.814 107.201 174.644 107.201C174.322 107.201 174.053 107.159 173.841 107.073C173.629 106.991 173.456 106.867 173.329 106.702C173.199 106.54 173.105 106.336 173.043 106.098C172.984 105.86 172.941 105.579 172.919 105.259L172.834 104.113C172.8 103.693 172.721 103.364 172.593 103.132C172.463 102.894 172.31 102.721 172.141 102.613C171.965 102.502 171.787 102.44 171.603 102.417C171.416 102.397 171.255 102.386 171.119 102.386H169.912V106.937H171.252V107.113H167.366V106.937Z" fill="#0B4228"/>
<path d="M180.859 106.936H182.197V98.3154H181.499C181.337 98.3154 181.156 98.3297 180.955 98.3609C180.755 98.3892 180.551 98.4715 180.345 98.6048C180.141 98.738 179.943 98.9506 179.753 99.2428C179.567 99.532 179.403 99.9319 179.267 100.445H179.134V98.1368H186.472V100.445H186.339C186.203 99.9319 186.039 99.532 185.85 99.2428C185.66 98.9506 185.465 98.738 185.258 98.6048C185.055 98.4715 184.848 98.3892 184.65 98.3609C184.449 98.3297 184.268 98.3154 184.107 98.3154H183.405V106.936H184.746V107.112H180.859V106.936Z" fill="#0B4228"/>
<path d="M190.673 104.401H190.806C190.893 104.855 191.01 105.238 191.148 105.55C191.292 105.862 191.445 106.117 191.615 106.318C191.782 106.523 191.96 106.676 192.147 106.783C192.331 106.894 192.517 106.974 192.704 107.022C192.896 107.073 193.077 107.104 193.25 107.112C193.423 107.121 193.587 107.124 193.739 107.124C194.167 107.124 194.515 107.058 194.789 106.922C195.06 106.789 195.278 106.619 195.44 106.412C195.601 106.208 195.714 105.984 195.779 105.746C195.844 105.505 195.875 105.283 195.875 105.082C195.875 104.79 195.824 104.538 195.72 104.325C195.615 104.115 195.482 103.936 195.321 103.792C195.159 103.644 194.981 103.525 194.795 103.432C194.605 103.338 194.427 103.267 194.257 103.219L192.871 102.777C192.217 102.567 191.725 102.289 191.391 101.946C191.058 101.6 190.891 101.14 190.891 100.556C190.891 100.182 190.956 99.8274 191.083 99.507C191.213 99.1838 191.394 98.903 191.626 98.6705C191.861 98.4323 192.138 98.2479 192.466 98.1119C192.792 97.9814 193.148 97.9106 193.536 97.9106C193.816 97.9106 194.051 97.9388 194.24 97.9872C194.43 98.0381 194.591 98.0948 194.729 98.1544C194.868 98.2224 194.99 98.2791 195.097 98.3274C195.205 98.3784 195.315 98.404 195.428 98.404C195.533 98.404 195.604 98.3869 195.64 98.3587C195.674 98.3302 195.725 98.2565 195.79 98.1403H195.96V100.42H195.816C195.768 100.117 195.683 99.8246 195.567 99.5438C195.448 99.2632 195.301 99.0136 195.114 98.801C194.927 98.5854 194.707 98.4124 194.447 98.2821C194.183 98.1544 193.878 98.0892 193.536 98.0892C193.34 98.0892 193.126 98.1147 192.894 98.1685C192.659 98.2252 192.444 98.3189 192.24 98.4549C192.042 98.5854 191.872 98.767 191.742 98.9824C191.609 99.2008 191.541 99.4788 191.541 99.8161C191.541 100.083 191.595 100.312 191.7 100.502C191.804 100.692 191.937 100.851 192.101 100.982C192.268 101.109 192.455 101.22 192.659 101.308C192.865 101.396 193.069 101.475 193.281 101.54L194.741 102.022C194.891 102.07 195.086 102.139 195.321 102.224C195.553 102.306 195.779 102.433 196.002 102.601C196.223 102.768 196.413 102.992 196.568 103.267C196.724 103.545 196.806 103.9 196.806 104.325C196.806 104.722 196.735 105.096 196.594 105.453C196.452 105.811 196.249 106.126 195.983 106.401C195.72 106.673 195.394 106.894 195.015 107.056C194.639 107.22 194.215 107.302 193.739 107.302C193.57 107.302 193.423 107.3 193.292 107.294C193.162 107.291 193.043 107.28 192.933 107.263C192.817 107.249 192.704 107.229 192.591 107.209C192.478 107.186 192.356 107.155 192.217 107.112C192.056 107.064 191.884 107.005 191.7 106.937C191.513 106.866 191.352 106.837 191.216 106.837C191.097 106.837 191.012 106.86 190.97 106.911C190.925 106.962 190.885 107.027 190.854 107.112H190.673V104.401Z" fill="#0B4228"/>
<path d="M196.805 87.7469H23V88.3735H196.805V87.7469Z" fill="#0B4228"/>
</g>
<defs>
<clipPath id="clip0_1_22">
<rect width="174" height="75" fill="white" transform="translate(23 33)"/>
</clipPath>
</defs>
</svg>
